<?xml version="1.0" encoding="utf-8"?>
<svg width="60" height="60" viewBox="0 0 60 60" fill="none" xmlns="http://www.w3.org/2000/svg">
  <ellipse style="fill: rgb(216, 216, 216); stroke: rgb(0, 0, 0);" cx="27.935" cy="20.621" rx="4.097" ry="6.67"/>
  <text style="white-space: pre; fill: rgb(51, 51, 51); font-family: Arial, sans-serif; font-size: 1.9px;" x="24.312" y="29.661">ishak</text>
  <ellipse style="fill: rgb(216, 216, 216); stroke: rgb(0, 0, 0);" cx="27.833" cy="22.517" rx="0.609" ry="0.779"/>
  <ellipse style="fill: rgb(216, 216, 216); stroke: rgb(0, 0, 0);" cx="31.253" cy="13.138" rx="0.982" ry="3.521"/>
  <ellipse style="fill: rgb(216, 216, 216); stroke: rgb(0, 0, 0);" cx="24.278" cy="13.104" rx="1.05" ry="3.284"/>
  <path style="fill: rgb(216, 216, 216); stroke: rgb(0, 0, 0);" d="M 29.323 18.555 C 30.003 18.329 29.431 19.205 29.323 19.097 C 29.007 18.781 30.068 18.42 30.068 18.42 C 30.068 18.42 30.271 18.904 30.271 19.029 C 30.271 19.531 30.226 19.683 29.932 19.977 C 29.702 20.208 29.422 19.805 29.391 19.774 C 29.031 19.415 28.947 18.796 29.323 18.42 C 29.535 18.208 29.901 18.691 29.932 18.691"/>
  <path style="fill: rgb(216, 216, 216); stroke: rgb(0, 0, 0);" d="M 26.343 18.826 C 26.343 19.287 26.802 19.45 27.088 19.165 C 27.431 18.822 26.431 18.531 26.343 18.488 C 26.198 18.415 26.052 18.102 25.937 18.217 C 25.728 18.425 26.366 19.797 26.479 19.91 C 26.495 19.926 26.868 19.926 26.885 19.91 C 27.33 19.465 27.041 18.576 26.749 18.284 C 26.721 18.256 26.388 17.969 26.275 18.081 C 26.026 18.331 26.682 20.346 26.682 19.368"/>
  <path style="fill: rgb(216, 216, 216); stroke: rgb(0, 0, 0);" d="M 25.666 24.786 C 26.228 24.786 27.357 25.054 27.698 25.395 C 27.797 25.495 28.153 25.303 28.239 25.26 C 28.542 25.108 29.284 25.434 29.526 25.192 C 29.628 25.09 29.72 24.921 29.865 24.921"/>
</svg>